<?xml version="1.0"?>
<svg xmlns:rdf="http://www.w3.org/1999/02/22-rdf-syntax-ns#" xmlns="http://www.w3.org/2000/svg" xmlns:cc="http://web.resource.org/cc/" xmlns:dc="http://purl.org/dc/elements/1.1/" xmlns:svg="http://www.w3.org/2000/svg" id="svg2134" viewBox="0 0 186.64 169.96" version="1.0">
  <g id="layer1" transform="translate(-2155.4 -1657.3)">
    <path id="path2213" stroke-linejoin="round" d="m2248.2 1659.4c-11.9 0.1-23.9 1.8-35.5 5.5l-0.3 0.1c-46.1 14.9-67.3 54.5-47.5 88.6 19.9 34.3 73.6 50.2 119.8 35.4 4.4-1.3 8.5-3 12.5-4.8-2.4 13.9-19.5 28.2-31.5 40.9 0 0 24.6-8.3 36.1-20.7 10.4-11.1 12.7-26.4 13.2-31 24.2-19 32.3-47.6 17.5-73.1-14.9-25.7-48.8-41-84.3-40.9z" stroke="#000" stroke-linecap="round" stroke-width="4.2733" fill="#fff"/>
  </g>
  <metadata>
    <rdf:RDF>
      <cc:Work>
        <dc:format>image/svg+xml</dc:format>
        <dc:type rdf:resource="http://purl.org/dc/dcmitype/StillImage"/>
        <cc:license rdf:resource="http://creativecommons.org/licenses/publicdomain/"/>
        <dc:publisher>
          <cc:Agent rdf:about="http://openclipart.org/">
            <dc:title>Openclipart</dc:title>
          </cc:Agent>
        </dc:publisher>
        <dc:title>comic clouds 11</dc:title>
        <dc:date>2006-12-26T00:00:00</dc:date>
        <dc:description>bubble, clip art, clipart, comic, speech, </dc:description>
        <dc:source>http://openclipart.org/detail/3489/-by--3489</dc:source>
        <dc:creator>
          <cc:Agent>
            <dc:title>SRD</dc:title>
          </cc:Agent>
        </dc:creator>
        <dc:subject>
          <rdf:Bag>
            <rdf:li>bubble</rdf:li>
            <rdf:li>clip art</rdf:li>
            <rdf:li>clipart</rdf:li>
            <rdf:li>comic</rdf:li>
            <rdf:li>speech</rdf:li>
          </rdf:Bag>
        </dc:subject>
      </cc:Work>
      <cc:License rdf:about="http://creativecommons.org/licenses/publicdomain/">
        <cc:permits rdf:resource="http://creativecommons.org/ns#Reproduction"/>
        <cc:permits rdf:resource="http://creativecommons.org/ns#Distribution"/>
        <cc:permits rdf:resource="http://creativecommons.org/ns#DerivativeWorks"/>
      </cc:License>
    </rdf:RDF>
  </metadata>
</svg>
